<svg width="203" height="32" viewBox="0 0 203 32" fill="none" xmlns="http://www.w3.org/2000/svg">
<path d="M1.07216 9.46552C0.798909 9.50537 0.545088 9.31616 0.505235 9.04291C0.465381 8.76966 0.654588 8.51584 0.92784 8.47599L1.07216 9.46552ZM202.476 27.8473C202.56 28.1103 202.416 28.3918 202.153 28.4761L197.868 29.8503C197.605 29.9346 197.323 29.7898 197.239 29.5268C197.155 29.2639 197.299 28.9824 197.562 28.898L201.371 27.6766L200.15 23.8676C200.065 23.6047 200.21 23.3232 200.473 23.2388C200.736 23.1545 201.018 23.2993 201.102 23.5623L202.476 27.8473ZM3.37798 8.12027C3.65128 8.08078 3.90485 8.27033 3.94434 8.54363C3.98383 8.81694 3.79429 9.07051 3.52099 9.11L3.37798 8.12027ZM9.36174 8.2766C9.0883 8.31509 8.83542 8.12462 8.79693 7.85118C8.75844 7.57773 8.94891 7.32485 9.22236 7.28636L9.36174 8.2766ZM14.1009 6.60842C14.3745 6.57091 14.6267 6.76229 14.6642 7.03588C14.7017 7.30946 14.5103 7.56165 14.2367 7.59915L14.1009 6.60842ZM20.0936 6.81093C19.8198 6.84705 19.5686 6.6544 19.5325 6.38063C19.4964 6.10686 19.689 5.85565 19.9628 5.81952L20.0936 6.81093ZM24.8478 5.18674C25.1218 5.15194 25.3721 5.3458 25.4069 5.61975C25.4417 5.89369 25.2478 6.14397 24.9739 6.17877L24.8478 5.18674ZM30.8302 5.45403C30.556 5.48702 30.307 5.29151 30.274 5.01734C30.2411 4.74318 30.4366 4.49418 30.7107 4.46119L30.8302 5.45403ZM35.597 3.88832C35.8713 3.85703 36.1191 4.05408 36.1504 4.32844C36.1817 4.60281 35.9846 4.85059 35.7103 4.88188L35.597 3.88832ZM41.5831 4.23642C41.3085 4.26542 41.0623 4.06631 41.0333 3.7917C41.0043 3.51708 41.2034 3.27095 41.4781 3.24195L41.5831 4.23642ZM46.3841 2.74275C46.6589 2.71587 46.9035 2.91688 46.9303 3.19171C46.9572 3.46654 46.7562 3.71112 46.4814 3.738L46.3841 2.74275ZM52.3583 3.19316C52.0832 3.21722 51.8407 3.01371 51.8166 2.73862C51.7926 2.46353 51.9961 2.22102 52.2712 2.19696L52.3583 3.19316ZM57.1783 1.79068C57.4536 1.76921 57.6942 1.97498 57.7157 2.25028C57.7372 2.52559 57.5314 2.76618 57.2561 2.78765L57.1783 1.79068ZM63.1399 2.36451C62.8644 2.38259 62.6263 2.17388 62.6082 1.89833C62.5902 1.62278 62.7989 1.38474 63.0744 1.36666L63.1399 2.36451ZM67.9938 1.071C68.2695 1.05599 68.5052 1.26735 68.5202 1.54309C68.5352 1.81882 68.3239 2.05451 68.0481 2.06952L67.9938 1.071ZM73.9435 1.79091C73.6675 1.80192 73.4349 1.58716 73.4239 1.31124C73.4129 1.03531 73.6277 0.80271 73.9036 0.791703L73.9435 1.79091ZM78.833 0.626875C79.109 0.619464 79.3388 0.837234 79.3462 1.11328C79.3536 1.38932 79.1358 1.6191 78.8598 1.62651L78.833 0.626875ZM84.7576 1.51702C84.4815 1.5198 84.2554 1.29821 84.2526 1.02209C84.2498 0.745957 84.4714 0.519855 84.7475 0.517071L84.7576 1.51702ZM89.6769 0.503761C89.9531 0.505093 90.1758 0.730027 90.1745 1.00617C90.1732 1.28231 89.9482 1.50508 89.6721 1.50375L89.6769 0.503761ZM95.5687 1.5876C95.2926 1.58103 95.0742 1.3519 95.0807 1.07584C95.0873 0.799774 95.3164 0.581311 95.5925 0.587888L95.5687 1.5876ZM100.519 0.746152C100.795 0.757345 101.01 0.990093 100.998 1.26601C100.987 1.54192 100.754 1.75652 100.478 1.74533L100.519 0.746152ZM106.367 2.04599C106.092 2.02897 105.882 1.79174 105.899 1.51613C105.916 1.24051 106.153 1.03087 106.429 1.04789L106.367 2.04599ZM111.349 1.39685C111.624 1.41894 111.829 1.65999 111.807 1.93524C111.785 2.2105 111.544 2.41573 111.269 2.39365L111.349 1.39685ZM117.14 2.93236C116.866 2.90395 116.666 2.65825 116.695 2.38357C116.723 2.10889 116.969 1.90925 117.243 1.93767L117.14 2.93236ZM122.145 2.49364C122.419 2.52749 122.613 2.77711 122.58 3.05117C122.546 3.32523 122.296 3.51995 122.022 3.48609L122.145 2.49364ZM127.863 4.28011C127.59 4.23954 127.401 3.98523 127.442 3.71208C127.482 3.43893 127.737 3.25039 128.01 3.29095L127.863 4.28011ZM132.881 4.06635C133.153 4.11262 133.336 4.37082 133.29 4.64306C133.244 4.9153 132.986 5.09848 132.713 5.05221L132.881 4.06635ZM138.511 6.11375C138.24 6.06053 138.063 5.79773 138.116 5.52677C138.17 5.2558 138.432 5.07928 138.703 5.13249L138.511 6.11375ZM143.534 6.13536C143.804 6.19441 143.975 6.46096 143.916 6.73072C143.857 7.00047 143.59 7.17128 143.32 7.11223L143.534 6.13536ZM149.061 8.44759C148.793 8.38152 148.629 8.1106 148.695 7.84248C148.761 7.57436 149.032 7.41056 149.3 7.47663L149.061 8.44759ZM154.081 8.71012C154.348 8.78202 154.505 9.05645 154.434 9.32307C154.362 9.58968 154.087 9.74753 153.821 9.67563L154.081 8.71012ZM159.493 11.285C159.228 11.2062 159.077 10.9277 159.156 10.6631C159.235 10.3984 159.514 10.2478 159.778 10.3266L159.493 11.285ZM164.486 11.7844C164.749 11.8689 164.893 12.1505 164.809 12.4134C164.724 12.6763 164.443 12.8209 164.18 12.7364L164.486 11.7844ZM169.766 14.6116C169.506 14.5203 169.368 14.2351 169.459 13.9745C169.551 13.7138 169.836 13.5765 170.096 13.6677L169.766 14.6116ZM174.733 15.3447C174.991 15.4414 175.123 15.7294 175.026 15.9881C174.93 16.2468 174.642 16.3781 174.383 16.2815L174.733 15.3447ZM179.879 18.4123C179.623 18.3093 179.498 18.0182 179.601 17.7619C179.704 17.5057 179.995 17.3815 180.252 17.4844L179.879 18.4123ZM184.815 19.3717C185.069 19.4798 185.187 19.7734 185.079 20.0275C184.971 20.2817 184.678 20.4 184.424 20.292L184.815 19.3717ZM189.826 22.6651C189.575 22.5511 189.463 22.2548 189.577 22.0033C189.691 21.7518 189.987 21.6403 190.239 21.7543L189.826 22.6651ZM194.705 23.8293C194.954 23.948 195.06 24.2464 194.942 24.4957C194.823 24.7451 194.525 24.851 194.275 24.7323L194.705 23.8293ZM199.567 27.3231C199.32 27.199 199.221 26.8984 199.345 26.6518C199.469 26.4051 199.77 26.3057 200.016 26.4298L199.567 27.3231ZM0.92784 8.47599C1.74678 8.35655 2.56348 8.23796 3.37798 8.12027L3.52099 9.11C2.70694 9.22762 1.89068 9.34614 1.07216 9.46552L0.92784 8.47599ZM9.22236 7.28636C10.8572 7.05624 12.4833 6.83016 14.1009 6.60842L14.2367 7.59915C12.6204 7.82072 10.9955 8.04664 9.36174 8.2766L9.22236 7.28636ZM19.9628 5.81952C21.5996 5.60356 23.2278 5.39253 24.8478 5.18674L24.9739 6.17877C23.3555 6.38434 21.7289 6.59517 20.0936 6.81093L19.9628 5.81952ZM30.7107 4.46119C32.3476 4.26423 33.9762 4.07316 35.597 3.88832L35.7103 4.88188C34.0917 5.06647 32.4651 5.2573 30.8302 5.45403L30.7107 4.46119ZM41.4781 3.24195C43.1212 3.06844 44.7564 2.90191 46.3841 2.74275L46.4814 3.738C44.8564 3.89691 43.2237 4.06317 41.5831 4.23642L41.4781 3.24195ZM52.2712 2.19696C53.9142 2.05328 55.5497 1.91772 57.1783 1.79068L57.2561 2.78765C55.6308 2.91444 53.9983 3.04974 52.3583 3.19316L52.2712 2.19696ZM63.0744 1.36666C64.7209 1.25859 66.3606 1.1599 67.9938 1.071L68.0481 2.06952C66.4188 2.15821 64.7828 2.25668 63.1399 2.36451L63.0744 1.36666ZM73.9036 0.791703C75.5528 0.725916 77.1958 0.670827 78.833 0.626875L78.8598 1.62651C77.2271 1.67035 75.5884 1.72529 73.9435 1.79091L73.9036 0.791703ZM84.7475 0.517071C86.396 0.500453 88.0389 0.495863 89.6769 0.503761L89.6721 1.50375C88.0392 1.49588 86.4012 1.50045 84.7576 1.51702L84.7475 0.517071ZM95.5925 0.587888C97.2391 0.627113 98.8811 0.679709 100.519 0.746152L100.478 1.74533C98.8463 1.67912 97.2098 1.6267 95.5687 1.5876L95.5925 0.587888ZM106.429 1.04789C108.072 1.14935 109.712 1.26551 111.349 1.39685L111.269 2.39365C109.639 2.26281 108.005 2.14708 106.367 2.04599L106.429 1.04789ZM117.243 1.93767C118.88 2.10692 120.513 2.29208 122.145 2.49364L122.022 3.48609C120.397 3.28536 118.77 3.10095 117.14 2.93236L117.243 1.93767ZM128.01 3.29095C129.635 3.5323 131.258 3.7906 132.881 4.06635L132.713 5.05221C131.098 4.77764 129.481 4.52044 127.863 4.28011L128.01 3.29095ZM138.703 5.13249C140.314 5.4488 141.924 5.78293 143.534 6.13536L143.32 7.11223C141.717 6.76134 140.114 6.42868 138.511 6.11375L138.703 5.13249ZM149.3 7.47663C150.893 7.86916 152.487 8.28017 154.081 8.71012L153.821 9.67563C152.233 9.24757 150.647 8.83838 149.061 8.44759L149.3 7.47663ZM159.778 10.3266C161.346 10.7936 162.915 11.2794 164.486 11.7844L164.18 12.7364C162.616 12.2336 161.054 11.7499 159.493 11.285L159.778 10.3266ZM170.096 13.6677C171.64 14.2076 173.185 14.7665 174.733 15.3447L174.383 16.2815C172.841 15.7057 171.303 15.1492 169.766 14.6116L170.096 13.6677ZM180.252 17.4844C181.77 18.0945 183.291 18.7235 184.815 19.3717L184.424 20.292C182.905 19.6463 181.391 19.0199 179.879 18.4123L180.252 17.4844ZM190.239 21.7543C191.724 22.4273 193.213 23.1189 194.705 23.8293L194.275 24.7323C192.788 24.0244 191.306 23.3355 189.826 22.6651L190.239 21.7543ZM200.016 26.4298C200.753 26.8004 201.49 27.1755 202.229 27.5554L201.771 28.4446C201.035 28.0661 200.301 27.6923 199.567 27.3231L200.016 26.4298ZM1.14432 9.96028C0.597818 10.04 0.090175 9.66157 0.010469 9.11507C-0.069237 8.56857 0.309177 8.06093 0.855679 7.98122L1.14432 9.96028ZM202.952 27.6946C203.121 28.2205 202.831 28.7836 202.305 28.9522L193.735 31.7006C193.209 31.8692 192.646 31.5796 192.478 31.0537C192.309 30.5278 192.599 29.9647 193.125 29.7961L200.742 27.3531L198.299 19.7353C198.131 19.2094 198.42 18.6463 198.946 18.4777C199.472 18.309 200.035 18.5986 200.204 19.1245L202.952 27.6946ZM3.30648 7.62541C3.85309 7.54643 4.36022 7.92552 4.43921 8.47213C4.51819 9.01874 4.1391 9.52588 3.59249 9.60486L3.30648 7.62541ZM9.43144 8.77172C8.88454 8.8487 8.37879 8.46776 8.30181 7.92087C8.22483 7.37398 8.60577 6.86823 9.15266 6.79125L9.43144 8.77172ZM14.033 6.11305C14.5801 6.03804 15.0845 6.4208 15.1595 6.96797C15.2345 7.51514 14.8518 8.01951 14.3046 8.09452L14.033 6.11305ZM20.159 7.30664C19.6115 7.37888 19.109 6.99358 19.0368 6.44604C18.9645 5.8985 19.3498 5.39606 19.8974 5.32382L20.159 7.30664ZM24.7848 4.69072C25.3327 4.62113 25.8333 5.00886 25.9029 5.55674C25.9725 6.10462 25.5847 6.60518 25.0369 6.67478L24.7848 4.69072ZM30.8899 5.95045C30.3416 6.01643 29.8436 5.6254 29.7776 5.07708C29.7116 4.52875 30.1027 4.03075 30.651 3.96477L30.8899 5.95045ZM35.5403 3.39154C36.089 3.32896 36.5846 3.72306 36.6472 4.27179C36.7098 4.82052 36.3157 5.31608 35.7669 5.37866L35.5403 3.39154ZM41.6356 4.73366C41.0864 4.79166 40.5941 4.39344 40.5361 3.84421C40.4781 3.29497 40.8763 2.80272 41.4256 2.74472L41.6356 4.73366ZM46.3354 2.24512C46.8851 2.19137 47.3742 2.59339 47.428 3.14305C47.4817 3.69271 47.0797 4.18188 46.53 4.23563L46.3354 2.24512ZM52.4019 3.69126C51.8517 3.73937 51.3667 3.33236 51.3185 2.78218C51.2704 2.23199 51.6774 1.74698 52.2276 1.69886L52.4019 3.69126ZM57.1394 1.2922C57.69 1.24924 58.1712 1.66078 58.2142 2.2114C58.2571 2.76201 57.8456 3.24319 57.295 3.28614L57.1394 1.2922ZM63.1727 2.86344C62.6216 2.89961 62.1455 2.48218 62.1093 1.93108C62.0732 1.37998 62.4906 0.903901 63.0417 0.86773L63.1727 2.86344ZM67.9666 0.57174C68.5181 0.541723 68.9895 0.964443 69.0195 1.51591C69.0495 2.06738 68.6268 2.53877 68.0753 2.56878L67.9666 0.57174ZM73.9634 2.29051C73.4115 2.31252 72.9463 1.88301 72.9243 1.33116C72.9023 0.779319 73.3318 0.314114 73.8837 0.2921L73.9634 2.29051ZM78.8195 0.127055C79.3716 0.112234 79.8312 0.547773 79.846 1.09986C79.8608 1.65194 79.4253 2.11151 78.8732 2.12633L78.8195 0.127055ZM84.7627 2.01699C84.2104 2.02256 83.7582 1.57938 83.7526 1.02713C83.7471 0.474869 84.1902 0.0226637 84.7425 0.0170963L84.7627 2.01699ZM89.6793 0.00376701C90.2316 0.00643014 90.6772 0.456299 90.6745 1.00858C90.6718 1.56086 90.222 2.00641 89.6697 2.00374L89.6793 0.00376701ZM95.5568 2.08746C95.0047 2.07431 94.5677 1.61606 94.5809 1.06393C94.594 0.511802 95.0523 0.0748766 95.6044 0.0880296L95.5568 2.08746ZM100.539 0.246563C101.091 0.268949 101.52 0.734444 101.498 1.28627C101.476 1.83811 101.01 2.26731 100.458 2.24492L100.539 0.246563ZM106.337 2.54504C105.785 2.511 105.366 2.03655 105.4 1.48532C105.434 0.93408 105.909 0.514805 106.46 0.548837L106.337 2.54504ZM111.389 0.898452C111.94 0.942629 112.35 1.42472 112.306 1.97524C112.262 2.52575 111.78 2.93622 111.229 2.89204L111.389 0.898452ZM117.089 3.42971C116.54 3.37288 116.14 2.88148 116.197 2.33212C116.254 1.78277 116.745 1.3835 117.295 1.44032L117.089 3.42971ZM122.206 1.99741C122.754 2.06512 123.144 2.56435 123.076 3.11247C123.008 3.66059 122.509 4.05003 121.961 3.98232L122.206 1.99741ZM127.789 4.77468C127.243 4.69355 126.866 4.18493 126.947 3.63863C127.028 3.09234 127.537 2.71525 128.083 2.79638L127.789 4.77468ZM132.965 3.57342C133.509 3.66596 133.875 4.18236 133.783 4.72684C133.69 5.27131 133.174 5.63768 132.63 5.54514L132.965 3.57342ZM138.414 6.60438C137.872 6.49795 137.519 5.97235 137.626 5.43041C137.732 4.88848 138.258 4.53543 138.8 4.64186L138.414 6.60438ZM143.641 5.64693C144.181 5.76503 144.522 6.29813 144.404 6.83764C144.286 7.37715 143.753 7.71877 143.213 7.60066L143.641 5.64693ZM148.941 8.93307C148.405 8.80093 148.078 8.25909 148.21 7.72285C148.342 7.18661 148.884 6.85902 149.42 6.99115L148.941 8.93307ZM154.211 8.22737C154.744 8.37117 155.06 8.92002 154.916 9.45326C154.772 9.98649 154.224 10.3022 153.69 10.1584L154.211 8.22737ZM159.35 11.7642C158.821 11.6066 158.519 11.0497 158.677 10.5204C158.835 9.99106 159.392 9.68979 159.921 9.84745L159.35 11.7642ZM164.639 11.3084C165.165 11.4774 165.454 12.0406 165.285 12.5664C165.116 13.0922 164.553 13.3814 164.027 13.2124L164.639 11.3084ZM169.601 15.0835C169.08 14.9011 168.805 14.3306 168.987 13.8093C169.17 13.288 169.74 13.0133 170.262 13.1957L169.601 15.0835ZM174.908 14.8763C175.425 15.0696 175.688 15.6457 175.495 16.163C175.301 16.6804 174.725 16.9431 174.208 16.7499L174.908 14.8763ZM179.692 18.8763C179.18 18.6703 178.931 18.0879 179.137 17.5755C179.343 17.063 179.926 16.8146 180.438 17.0205L179.692 18.8763ZM185.011 18.9116C185.519 19.1278 185.756 19.715 185.539 20.2232C185.323 20.7315 184.736 20.9682 184.228 20.7521L185.011 18.9116ZM189.62 23.1205C189.117 22.8925 188.894 22.2999 189.122 21.7969C189.35 21.2939 189.942 21.0709 190.445 21.2988L189.62 23.1205ZM194.92 23.3779C195.419 23.6153 195.63 24.212 195.393 24.7106C195.156 25.2093 194.559 25.4211 194.06 25.1837L194.92 23.3779ZM199.342 27.7698C198.849 27.5216 198.65 26.9204 198.898 26.427C199.147 25.9337 199.748 25.735 200.241 25.9832L199.342 27.7698ZM0.855679 7.98122C1.67483 7.86175 2.49175 7.74314 3.30648 7.62541L3.59249 9.60486C2.77867 9.72245 1.96263 9.84093 1.14432 9.96028L0.855679 7.98122ZM9.15266 6.79125C10.7881 6.56105 12.4147 6.33488 14.033 6.11305L14.3046 8.09452C12.6889 8.316 11.0646 8.54183 9.43144 8.77172L9.15266 6.79125ZM19.8974 5.32382C21.5349 5.10776 23.164 4.89662 24.7848 4.69072L25.0369 6.67478C23.4194 6.88025 21.7935 7.09097 20.159 7.30664L19.8974 5.32382ZM30.651 3.96477C32.2888 3.76769 33.9185 3.5765 35.5403 3.39154L35.7669 5.37866C34.1494 5.56313 32.5239 5.75384 30.8899 5.95045L30.651 3.96477ZM41.4256 2.74472C43.0699 2.57107 44.7064 2.40442 46.3354 2.24512L46.53 4.23563C44.9064 4.3944 43.275 4.56053 41.6356 4.73366L41.4256 2.74472ZM52.2276 1.69886C53.8721 1.55505 55.5092 1.41936 57.1394 1.2922L57.295 3.28614C55.6713 3.4128 54.0403 3.54797 52.4019 3.69126L52.2276 1.69886ZM63.0417 0.86773C64.69 0.759544 66.3315 0.660741 67.9666 0.57174L68.0753 2.56878C66.4479 2.65737 64.8138 2.75572 63.1727 2.86344L63.0417 0.86773ZM73.8837 0.2921C75.535 0.22623 77.1801 0.171067 78.8195 0.127055L78.8732 2.12633C77.2427 2.17011 75.6062 2.22498 73.9634 2.29051L73.8837 0.2921ZM84.7425 0.0170963C86.3933 0.000454142 88.0388 -0.00414377 89.6793 0.00376701L89.6697 2.00374C88.0393 1.99588 86.4038 2.00045 84.7627 2.01699L84.7425 0.0170963ZM95.6044 0.0880296C97.2537 0.12732 98.8985 0.180004 100.539 0.246563L100.458 2.24492C98.8288 2.17882 97.1952 2.12649 95.5568 2.08746L95.6044 0.0880296ZM106.46 0.548837C108.106 0.65049 109.749 0.766863 111.389 0.898452L111.229 2.89204C109.602 2.76145 107.971 2.64595 106.337 2.54504L106.46 0.548837ZM117.295 1.44032C118.934 1.60991 120.571 1.79544 122.206 1.99741L121.961 3.98232C120.339 3.782 118.716 3.59796 117.089 3.42971L117.295 1.44032ZM128.083 2.79638C129.712 3.03823 131.339 3.29708 132.965 3.57342L132.63 5.54514C131.018 5.27116 129.404 5.01451 127.789 4.77468L128.083 2.79638ZM138.8 4.64186C140.414 4.95886 142.027 5.29372 143.641 5.64693L143.213 7.60066C141.614 7.25055 140.014 6.91862 138.414 6.60438L138.8 4.64186ZM149.42 6.99115C151.016 7.38455 152.613 7.79647 154.211 8.22737L153.69 10.1584C152.107 9.73128 150.524 9.32299 148.941 8.93307L149.42 6.99115ZM159.921 9.84745C161.492 10.3154 163.065 10.8023 164.639 11.3084L164.027 13.2124C162.466 12.7107 160.907 12.2281 159.35 11.7642L159.921 9.84745ZM170.262 13.1957C171.808 13.7368 173.357 14.2969 174.908 14.8763L174.208 16.7499C172.67 16.1753 171.134 15.62 169.601 15.0835L170.262 13.1957ZM180.438 17.0205C181.959 17.6318 183.483 18.262 185.011 18.9116L184.228 20.7521C182.713 20.1077 181.201 19.4825 179.692 18.8763L180.438 17.0205ZM190.445 21.2988C191.933 21.9732 193.425 22.6661 194.92 23.3779L194.06 25.1837C192.576 24.4772 191.096 23.7896 189.62 23.1205L190.445 21.2988ZM200.241 25.9832C200.979 26.3544 201.718 26.7302 202.457 27.1107L201.543 28.8893C200.808 28.5114 200.075 28.1383 199.342 27.7698L200.241 25.9832Z" fill="#00327C"/>
</svg>
