<svg width="202" height="32" viewBox="0 0 202 32" fill="none" xmlns="http://www.w3.org/2000/svg">
<path d="M1.07071 22.505C0.797344 22.466 0.544078 22.6559 0.505025 22.9293C0.465973 23.2027 0.655922 23.4559 0.929289 23.495L1.07071 22.505ZM200.975 4.65667C201.061 4.39443 200.919 4.1117 200.657 4.02518L196.383 2.61518C196.121 2.52865 195.838 2.67109 195.752 2.93333C195.665 3.19557 195.808 3.47829 196.07 3.56482L199.869 4.81815L198.615 8.61673C198.529 8.87896 198.671 9.16169 198.933 9.24821C199.196 9.33474 199.478 9.1923 199.565 8.93006L200.975 4.65667ZM3.35991 23.8406C3.63333 23.8793 3.88635 23.689 3.92504 23.4156C3.96374 23.1422 3.77346 22.8892 3.50005 22.8505L3.35991 23.8406ZM9.29425 23.6603C9.0207 23.6226 8.76836 23.8138 8.73065 24.0873C8.69293 24.3609 8.88411 24.6132 9.15767 24.6509L9.29425 23.6603ZM13.9972 25.3097C14.2709 25.3464 14.5226 25.1544 14.5593 24.8807C14.5961 24.607 14.404 24.3553 14.1303 24.3186L13.9972 25.3097ZM19.9403 25.0845C19.6664 25.0491 19.4157 25.2424 19.3803 25.5163C19.3449 25.7902 19.5382 26.0409 19.8121 26.0763L19.9403 25.0845ZM24.6578 26.6911C24.9318 26.7252 25.1816 26.5307 25.2157 26.2567C25.2498 25.9827 25.0553 25.7329 24.7813 25.6988L24.6578 26.6911ZM30.5904 26.403C30.3161 26.3707 30.0676 26.5668 30.0353 26.8411C30.0029 27.1153 30.1991 27.3638 30.4733 27.3961L30.5904 26.403ZM35.3201 27.9529C35.5945 27.9835 35.8419 27.7859 35.8725 27.5115C35.9032 27.237 35.7056 26.9897 35.4312 26.959L35.3201 27.9529ZM41.2562 27.5863C40.9815 27.5579 40.7358 27.7575 40.7074 28.0322C40.679 28.3069 40.8786 28.5526 41.1533 28.581L41.2562 27.5863ZM46.0191 29.0661C46.2939 29.0925 46.5381 28.891 46.5645 28.6161C46.5908 28.3412 46.3893 28.097 46.1145 28.0707L46.0191 29.0661ZM51.9432 28.6003C51.668 28.5767 51.4259 28.7806 51.4023 29.0558C51.3787 29.3309 51.5826 29.5731 51.8578 29.5966L51.9432 28.6003ZM56.7243 29.9916C56.9996 30.0127 57.2399 29.8065 57.261 29.5312C57.282 29.2558 57.0759 29.0156 56.8006 28.9945L56.7243 29.9916ZM62.6358 29.406C62.3602 29.3883 62.1224 29.5973 62.1047 29.8729C62.0869 30.1484 62.2959 30.3862 62.5715 30.4039L62.6358 29.406ZM67.4503 30.6916C67.7261 30.7063 67.9616 30.4947 67.9763 30.219C67.991 29.9432 67.7794 29.7078 67.5037 29.693L67.4503 30.6916ZM73.3499 29.9643C73.074 29.9535 72.8415 30.1684 72.8307 30.4444C72.8199 30.7203 73.0348 30.9527 73.3108 30.9636L73.3499 29.9643ZM78.1987 31.1243C78.4748 31.1316 78.7045 30.9137 78.7118 30.6377C78.7191 30.3617 78.5012 30.132 78.2252 30.1247L78.1987 31.1243ZM84.0737 30.2319C83.7976 30.2292 83.5715 30.4508 83.5687 30.7269C83.566 31.003 83.7876 31.2291 84.0637 31.2319L84.0737 30.2319ZM88.9516 31.2457C89.2277 31.2445 89.4506 31.0196 89.4493 30.7434C89.4481 30.4673 89.2232 30.2445 88.9471 30.2457L88.9516 31.2457ZM94.7945 30.1655C94.5184 30.1719 94.2998 30.4008 94.3061 30.6769C94.3125 30.953 94.5415 31.1716 94.8176 31.1652L94.7945 30.1655ZM99.7028 31.0127C99.9787 31.0018 100.194 30.7693 100.183 30.4933C100.172 30.2174 99.9392 30.0026 99.6633 30.0134L99.7028 31.0127ZM105.503 29.723C105.228 29.7395 105.018 29.9764 105.034 30.2521C105.051 30.5277 105.288 30.7377 105.564 30.7212L105.503 29.723ZM110.443 30.3836C110.718 30.3621 110.924 30.1214 110.903 29.8461C110.881 29.5708 110.64 29.3651 110.365 29.3867L110.443 30.3836ZM116.189 28.8652C115.914 28.8929 115.714 29.1382 115.741 29.4129C115.769 29.6876 116.014 29.8879 116.289 29.8601L116.189 28.8652ZM121.151 29.3217C121.425 29.2886 121.62 29.0396 121.587 28.7654C121.554 28.4913 121.305 28.2958 121.031 28.3289L121.151 29.3217ZM126.825 27.5595C126.552 27.5992 126.363 27.8529 126.402 28.1261C126.442 28.3994 126.696 28.5888 126.969 28.5492L126.825 27.5595ZM131.802 27.7976C132.074 27.7523 132.258 27.4948 132.213 27.2224C132.168 26.95 131.91 26.7659 131.638 26.8111L131.802 27.7976ZM137.391 25.7817C137.12 25.8337 136.942 26.0958 136.995 26.3669C137.047 26.6381 137.309 26.8158 137.58 26.7637L137.391 25.7817ZM142.374 25.7908C142.644 25.7331 142.817 25.4673 142.759 25.1973C142.701 24.9273 142.435 24.7552 142.165 24.813L142.374 25.7908ZM147.865 23.5169C147.596 23.5816 147.431 23.8517 147.496 24.1201C147.56 24.3886 147.83 24.5538 148.099 24.4891L147.865 23.5169ZM152.846 23.2915C153.113 23.2211 153.272 22.9475 153.202 22.6805C153.132 22.4135 152.858 22.2541 152.591 22.3246L152.846 23.2915ZM158.224 20.7614C157.959 20.8387 157.807 21.1162 157.884 21.3813C157.961 21.6464 158.239 21.7988 158.504 21.7215L158.224 20.7614ZM163.181 20.3049C163.445 20.2221 163.591 19.9414 163.508 19.6779C163.425 19.4145 163.145 19.2681 162.881 19.351L163.181 20.3049ZM168.433 17.5278C168.172 17.6172 168.033 17.9015 168.122 18.1628C168.211 18.424 168.496 18.5633 168.757 18.4739L168.433 17.5278ZM173.366 16.8425C173.625 16.7477 173.759 16.4606 173.664 16.2012C173.569 15.9419 173.282 15.8085 173.023 15.9033L173.366 16.8425ZM178.488 13.8296C178.231 13.9307 178.105 14.2209 178.206 14.4779C178.307 14.7349 178.597 14.8613 178.854 14.7602L178.488 13.8296ZM183.393 12.9226C183.648 12.8165 183.768 12.5238 183.662 12.2689C183.556 12.0139 183.263 11.8933 183.009 11.9995L183.393 12.9226ZM188.384 9.68783C188.132 9.79983 188.018 10.0952 188.13 10.3477C188.242 10.6001 188.537 10.7139 188.79 10.6019L188.384 9.68783ZM193.234 8.57973C193.485 8.46305 193.593 8.16557 193.476 7.91529C193.36 7.66501 193.062 7.5567 192.812 7.67338L193.234 8.57973ZM198.08 5.14714C197.833 5.26921 197.731 5.56896 197.853 5.81666C197.975 6.06436 198.275 6.1662 198.522 6.04414L198.08 5.14714ZM0.929289 23.495C1.7417 23.611 2.5519 23.7263 3.35991 23.8406L3.50005 22.8505C2.69248 22.7362 1.88271 22.621 1.07071 22.505L0.929289 23.495ZM9.15767 24.6509C10.7795 24.8745 12.3926 25.0942 13.9972 25.3097L14.1303 24.3186C12.5269 24.1033 10.915 23.8838 9.29425 23.6603L9.15767 24.6509ZM19.8121 26.0763C21.4357 26.2861 23.0508 26.4912 24.6578 26.6911L24.7813 25.6988C23.176 25.499 21.5624 25.2942 19.9403 25.0845L19.8121 26.0763ZM30.4733 27.3961C32.0969 27.5875 33.7124 27.7732 35.3201 27.9529L35.4312 26.959C33.8256 26.7796 32.2121 26.5942 30.5904 26.403L30.4733 27.3961ZM41.1533 28.581C42.7829 28.7496 44.4047 28.9114 46.0191 29.0661L46.1145 28.0707C44.5027 27.9163 42.8834 27.7547 41.2562 27.5863L41.1533 28.581ZM51.8578 29.5966C53.4872 29.7363 55.1092 29.8681 56.7243 29.9916L56.8006 28.9945C55.1886 28.8712 53.5696 28.7397 51.9432 28.6003L51.8578 29.5966ZM62.5715 30.4039C64.2044 30.5091 65.8306 30.6051 67.4503 30.6916L67.5037 29.693C65.8877 29.6067 64.2652 29.5109 62.6358 29.406L62.5715 30.4039ZM73.3108 30.9636C74.9461 31.0277 76.5753 31.0814 78.1987 31.1243L78.2252 30.1247C76.6061 30.0819 74.9811 30.0283 73.3499 29.9643L73.3108 30.9636ZM84.0637 31.2319C85.6982 31.2483 87.3274 31.2531 88.9516 31.2457L88.9471 30.2457C87.3278 30.253 85.7035 30.2483 84.0737 30.2319L84.0637 31.2319ZM94.8176 31.1652C96.4503 31.1275 98.0786 31.0768 99.7028 31.0127L99.6633 30.0134C98.0447 30.0774 96.4219 30.1279 94.7945 30.1655L94.8176 31.1652ZM105.564 30.7212C107.194 30.623 108.82 30.5107 110.443 30.3836L110.365 29.3867C108.748 29.5133 107.128 29.6252 105.503 29.723L105.564 30.7212ZM116.289 29.8601C117.912 29.6962 119.532 29.5169 121.151 29.3217L121.031 28.3289C119.419 28.5233 117.805 28.7019 116.189 28.8652L116.289 29.8601ZM126.969 28.5492C128.581 28.3153 130.192 28.0649 131.802 27.7976L131.638 26.8111C130.035 27.0773 128.431 27.3266 126.825 27.5595L126.969 28.5492ZM137.58 26.7637C139.178 26.4569 140.776 26.1328 142.374 25.7908L142.165 24.813C140.574 25.1534 138.983 25.4762 137.391 25.7817L137.58 26.7637ZM148.099 24.4891C149.681 24.108 151.263 23.709 152.846 23.2915L152.591 22.3246C151.015 22.7402 149.44 23.1375 147.865 23.5169L148.099 24.4891ZM158.504 21.7215C160.061 21.2678 161.62 20.7957 163.181 20.3049L162.881 19.351C161.327 19.8396 159.775 20.3096 158.224 20.7614L158.504 21.7215ZM168.757 18.4739C170.291 17.9487 171.827 17.405 173.366 16.8425L173.023 15.9033C171.49 16.4635 169.961 17.0048 168.433 17.5278L168.757 18.4739ZM178.854 14.7602C180.364 14.1663 181.877 13.5539 183.393 12.9226L183.009 11.9995C181.498 12.6282 179.992 13.2381 178.488 13.8296L178.854 14.7602ZM188.79 10.6019C190.268 9.9461 191.749 9.27216 193.234 8.57973L192.812 7.67338C191.332 8.3632 189.856 9.03457 188.384 9.68783L188.79 10.6019ZM198.522 6.04414C199.255 5.68283 199.99 5.31697 200.725 4.94653L200.275 4.05347C199.542 4.42259 198.811 4.78714 198.08 5.14714L198.522 6.04414ZM1.14142 22.0101C0.594687 21.9319 0.0881554 22.3118 0.0100505 22.8586C-0.0680544 23.4053 0.311845 23.9118 0.858579 23.9899L1.14142 22.0101ZM201.45 4.81333C201.623 4.28886 201.338 3.72341 200.813 3.55036L192.267 0.730351C191.742 0.557302 191.177 0.842187 191.004 1.36666C190.831 1.89113 191.115 2.45659 191.64 2.62964L199.237 5.13631L196.73 12.7335C196.557 13.2579 196.842 13.8234 197.367 13.9964C197.891 14.1695 198.457 13.8846 198.63 13.3601L201.45 4.81333ZM3.28985 24.3357C3.83668 24.4131 4.34272 24.0325 4.42011 23.4857C4.4975 22.9388 4.11695 22.4328 3.57011 22.3554L3.28985 24.3357ZM9.36255 23.165C8.81544 23.0895 8.31077 23.4719 8.23533 24.019C8.1599 24.5661 8.54227 25.0708 9.08938 25.1462L9.36255 23.165ZM13.9307 25.8052C14.4781 25.8787 14.9814 25.4946 15.0549 24.9472C15.1284 24.3998 14.7442 23.8965 14.1969 23.823L13.9307 25.8052ZM20.0044 24.5886C19.4566 24.5178 18.9552 24.9045 18.8844 25.4522C18.8137 25.9999 19.2003 26.5013 19.748 26.5721L20.0044 24.5886ZM24.5961 27.1873C25.1441 27.2555 25.6437 26.8665 25.7119 26.3184C25.7801 25.7704 25.3911 25.2708 24.843 25.2026L24.5961 27.1873ZM30.6489 25.9065C30.1004 25.8418 29.6034 26.234 29.5387 26.7825C29.4741 27.331 29.8663 27.8281 30.4148 27.8927L30.6489 25.9065ZM35.2646 28.4498C35.8135 28.5111 36.3081 28.1159 36.3695 27.567C36.4308 27.0181 36.0355 26.5235 35.4867 26.4621L35.2646 28.4498ZM41.3077 27.089C40.7583 27.0321 40.2669 27.4314 40.2101 27.9807C40.1532 28.5301 40.5525 29.0215 41.1018 29.0783L41.3077 27.089ZM45.9714 29.5639C46.5211 29.6165 47.0095 29.2136 47.0622 28.6638C47.1149 28.114 46.7119 27.6257 46.1621 27.573L45.9714 29.5639ZM51.9859 28.1021C51.4356 28.055 50.9513 28.4628 50.9041 29.0131C50.857 29.5633 51.2648 30.0476 51.8151 30.0948L51.9859 28.1021ZM56.6862 30.4901C57.2369 30.5323 57.7174 30.12 57.7595 29.5693C57.8016 29.0186 57.3894 28.5381 56.8387 28.496L56.6862 30.4901ZM62.6679 28.907C62.1167 28.8716 61.6412 29.2896 61.6057 29.8407C61.5702 30.3919 61.9883 30.8674 62.5394 30.9029L62.6679 28.907ZM67.4237 31.1909C67.9752 31.2204 68.4461 30.7972 68.4756 30.2457C68.505 29.6942 68.0818 29.2232 67.5303 29.1937L67.4237 31.1909ZM73.3695 29.4647C72.8177 29.4431 72.3527 29.8729 72.3311 30.4248C72.3095 30.9766 72.7393 31.4415 73.2912 31.4632L73.3695 29.4647ZM78.1855 31.6241C78.7376 31.6387 79.197 31.203 79.2116 30.6509C79.2262 30.0988 78.7905 29.6394 78.2384 29.6248L78.1855 31.6241ZM84.0788 29.732C83.5265 29.7264 83.0743 30.1696 83.0688 30.7219C83.0632 31.2741 83.5064 31.7263 84.0587 31.7319L84.0788 29.732ZM88.9538 31.7457C89.5061 31.7432 89.9518 31.2935 89.9493 30.7412C89.9468 30.1889 89.4971 29.7432 88.9448 29.7457L88.9538 31.7457ZM94.7829 29.6656C94.2308 29.6784 93.7935 30.1363 93.8063 30.6885C93.819 31.2406 94.277 31.6778 94.8291 31.6651L94.7829 29.6656ZM99.7225 31.5123C100.274 31.4905 100.704 31.0255 100.682 30.4736C100.66 29.9217 100.195 29.492 99.6436 29.5138L99.7225 31.5123ZM105.473 29.2239C104.922 29.257 104.502 29.7308 104.535 30.2821C104.568 30.8334 105.042 31.2534 105.594 31.2202L105.473 29.2239ZM110.482 30.8821C111.033 30.839 111.444 30.3577 111.401 29.8071C111.358 29.2565 110.877 28.8451 110.326 28.8882L110.482 30.8821ZM116.138 28.3677C115.589 28.4232 115.188 28.9136 115.244 29.4631C115.299 30.0126 115.79 30.4131 116.339 30.3576L116.138 28.3677ZM121.211 29.8181C121.759 29.752 122.15 29.2538 122.084 28.7055C122.017 28.1572 121.519 27.7664 120.971 27.8325L121.211 29.8181ZM126.754 27.0647C126.207 27.144 125.828 27.6514 125.908 28.1979C125.987 28.7445 126.494 29.1233 127.041 29.044L126.754 27.0647ZM131.884 28.2908C132.429 28.2003 132.797 27.6853 132.706 27.1405C132.616 26.5957 132.101 26.2274 131.556 26.3178L131.884 28.2908ZM137.297 25.2906C136.755 25.3947 136.399 25.9188 136.504 26.4612C136.608 27.0036 137.132 27.3589 137.674 27.2548L137.297 25.2906ZM142.479 26.2798C143.019 26.1642 143.363 25.6327 143.248 25.0927C143.132 24.5526 142.601 24.2085 142.061 24.324L142.479 26.2798ZM147.748 23.0309C147.211 23.1602 146.88 23.7003 147.01 24.2373C147.139 24.7742 147.679 25.1046 148.216 24.9752L147.748 23.0309ZM152.973 23.775C153.508 23.6341 153.826 23.0871 153.685 22.553C153.545 22.019 152.998 21.7003 152.463 21.8411L152.973 23.775ZM158.084 20.2814C157.554 20.4359 157.25 20.9909 157.404 21.5212C157.558 22.0514 158.114 22.356 158.644 22.2016L158.084 20.2814ZM163.331 20.7819C163.858 20.6162 164.151 20.0548 163.985 19.5279C163.819 19.0011 163.258 18.7083 162.731 18.874L163.331 20.7819ZM168.271 17.0547C167.749 17.2336 167.47 17.8022 167.649 18.3247C167.828 18.8472 168.396 19.1258 168.919 18.9469L168.271 17.0547ZM173.538 17.3121C174.056 17.1225 174.323 16.5483 174.134 16.0296C173.944 15.5109 173.37 15.2441 172.851 15.4337L173.538 17.3121ZM178.305 13.3643C177.791 13.5665 177.538 14.147 177.74 14.6609C177.942 15.1749 178.523 15.4277 179.037 15.2255L178.305 13.3643ZM183.585 13.3842C184.095 13.172 184.336 12.5865 184.124 12.0767C183.912 11.5668 183.326 11.3256 182.816 11.5379L183.585 13.3842ZM188.181 9.2308C187.676 9.4548 187.449 10.0456 187.673 10.5504C187.897 11.0553 188.488 11.2829 188.992 11.0589L188.181 9.2308ZM193.446 9.0329C193.946 8.79955 194.163 8.20459 193.929 7.70403C193.696 7.20346 193.101 6.98685 192.601 7.2202L193.446 9.0329ZM197.859 4.69864C197.364 4.94277 197.16 5.54227 197.404 6.03767C197.648 6.53307 198.248 6.73677 198.743 6.49264L197.859 4.69864ZM0.858579 23.9899C1.6712 24.106 2.48161 24.2213 3.28985 24.3357L3.57011 22.3554C2.76277 22.2412 1.95322 22.126 1.14142 22.0101L0.858579 23.9899ZM9.08938 25.1462C10.7117 25.3699 12.3254 25.5897 13.9307 25.8052L14.1969 23.823C12.594 23.6078 10.9827 23.3884 9.36255 23.165L9.08938 25.1462ZM19.748 26.5721C21.3724 26.7821 22.9883 26.9872 24.5961 27.1873L24.843 25.2026C23.2385 25.0029 21.6258 24.7982 20.0044 24.5886L19.748 26.5721ZM30.4148 27.8927C32.0394 28.0842 33.6559 28.27 35.2646 28.4498L35.4867 26.4621C33.8822 26.2829 32.2697 26.0975 30.6489 25.9065L30.4148 27.8927ZM41.1018 29.0783C42.7327 29.2471 44.3557 29.409 45.9714 29.5639L46.1621 27.573C44.5517 27.4187 42.9337 27.2572 41.3077 27.089L41.1018 29.0783ZM51.8151 30.0948C53.4459 30.2346 55.0695 30.3665 56.6862 30.4901L56.8387 28.496C55.2283 28.3728 53.6109 28.2414 51.9859 28.1021L51.8151 30.0948ZM62.5394 30.9029C64.1741 31.0081 65.802 31.1043 67.4237 31.1909L67.5303 29.1937C65.9162 29.1075 64.2955 29.0118 62.6679 28.907L62.5394 30.9029ZM73.2912 31.4632C74.9286 31.5274 76.5599 31.5812 78.1855 31.6241L78.2384 29.6248C76.6215 29.5821 74.9987 29.5286 73.3695 29.4647L73.2912 31.4632ZM84.0587 31.7319C85.6956 31.7483 87.3272 31.7531 88.9538 31.7457L88.9448 29.7457C87.3281 29.753 85.7062 29.7483 84.0788 29.732L84.0587 31.7319ZM94.8291 31.6651C96.4646 31.6273 98.0955 31.5765 99.7225 31.5123L99.6436 29.5138C98.0278 29.5776 96.4077 29.6281 94.7829 29.6656L94.8291 31.6651ZM105.594 31.2202C107.226 31.122 108.856 31.0094 110.482 30.8821L110.326 28.8882C108.712 29.0145 107.095 29.1263 105.473 29.2239L105.594 31.2202ZM116.339 30.3576C117.965 30.1934 119.589 30.0137 121.211 29.8181L120.971 27.8325C119.363 28.0265 117.752 28.2048 116.138 28.3677L116.339 30.3576ZM127.041 29.044C128.656 28.8096 130.271 28.5587 131.884 28.2908L131.556 26.3178C129.957 26.5835 128.356 26.8323 126.754 27.0647L127.041 29.044ZM137.674 27.2548C139.276 26.9473 140.878 26.6224 142.479 26.2798L142.061 24.324C140.473 24.6637 138.885 24.9858 137.297 25.2906L137.674 27.2548ZM148.216 24.9752C149.801 24.5933 151.387 24.1934 152.973 23.775L152.463 21.8411C150.891 22.2558 149.319 22.6523 147.748 23.0309L148.216 24.9752ZM158.644 22.2016C160.205 21.7468 161.767 21.2737 163.331 20.7819L162.731 18.874C161.181 19.3616 159.632 19.8306 158.084 20.2814L158.644 22.2016ZM168.919 18.9469C170.456 18.4206 171.996 17.8758 173.538 17.3121L172.851 15.4337C171.322 15.9927 169.795 16.5329 168.271 17.0547L168.919 18.9469ZM179.037 15.2255C180.55 14.6304 182.066 14.0167 183.585 13.3842L182.816 11.5379C181.309 12.1653 179.806 12.774 178.305 13.3643L179.037 15.2255ZM188.992 11.0589C190.473 10.4019 191.957 9.72663 193.446 9.0329L192.601 7.2202C191.124 7.90873 189.651 8.57881 188.181 9.2308L188.992 11.0589ZM198.743 6.49264C199.478 6.13067 200.213 5.76416 200.95 5.39306L200.05 3.60694C199.319 3.97541 198.588 4.33929 197.859 4.69864L198.743 6.49264Z" fill="#00327C"/>
</svg>
