<svg width="42" height="26" viewBox="0 0 42 26" fill="none" xmlns="http://www.w3.org/2000/svg">
<path d="M0.5 14.7C0.5 12.4333 1.1 10.2 2.3 8C3.56667 5.8 5.16667 3.96666 7.1 2.5C9.1 0.966665 11.2 0.199999 13.4 0.199999C14.1333 0.199999 14.9 0.499999 15.7 1.1C16.5667 1.7 17 2.73333 17 4.19999C17 5.66666 16.5 6.56666 15.5 6.9C14.5667 7.23333 13.7667 7.56666 13.1 7.89999C12.2333 8.36666 11.5333 8.93333 11 9.6C10.5333 10.2 10.3 10.9667 10.3 11.9C10.3 12.5667 10.6333 13.2 11.3 13.8C12.0333 14.4 12.9667 14.7 14.1 14.7C14.5 14.7 14.9667 14.6667 15.5 14.6C16.0333 14.4667 16.5 14.2667 16.9 14C17.6333 14.2667 18.2333 14.6667 18.7 15.2C19.1667 15.7333 19.4 16.5667 19.4 17.7C19.4 19.7667 18.4333 21.5667 16.5 23.1C14.6333 24.5667 12.4333 25.3 9.9 25.3C7.03333 25.3 4.73333 24.3333 3 22.4C1.33333 20.4667 0.5 17.9 0.5 14.7ZM22.6 14.7C22.6 12.4333 23.2 10.2 24.4 8C25.6667 5.8 27.2667 3.96666 29.2 2.5C31.2 0.966665 33.3 0.199999 35.5 0.199999C36.2333 0.199999 37 0.499999 37.8 1.1C38.6667 1.7 39.1 2.73333 39.1 4.19999C39.1 5.66666 38.6 6.56666 37.6 6.9C36.6667 7.23333 35.8667 7.56666 35.2 7.89999C34.3333 8.36666 33.6333 8.93333 33.1 9.6C32.6333 10.2 32.4 10.9667 32.4 11.9C32.4 12.5667 32.7333 13.2 33.4 13.8C34.1333 14.4 35.0667 14.7 36.2 14.7C36.6 14.7 37.0667 14.6667 37.6 14.6C38.1333 14.4667 38.6 14.2667 39 14C39.7333 14.2667 40.3333 14.6667 40.8 15.2C41.2667 15.7333 41.5 16.5667 41.5 17.7C41.5 19.7667 40.5333 21.5667 38.6 23.1C36.7333 24.5667 34.5333 25.3 32 25.3C29.1333 25.3 26.8333 24.3333 25.1 22.4C23.4333 20.4667 22.6 17.9 22.6 14.7Z" fill="#EAEFF3"/>
</svg>
