<svg width="29" height="29" viewBox="0 0 29 29" fill="none" xmlns="http://www.w3.org/2000/svg">
<path d="M11.6431 4.73357V0.272034L10.6729 0.544079L9.7026 0.816124L8.24721 1.41462L6.68401 2.28517L5.65985 3.04689L4.95911 3.64539L4.25836 4.24389L3.50372 5.11444L2.80297 6.03939L2.04833 7.12757L1.6171 7.9437L0.862454 9.57597L0.431227 10.9906L0.215613 12.0788L0 13.8199V15.7242L0.269517 17.4653L0.700743 19.2064L1.29368 20.621L1.88662 21.9268L2.42565 22.7974L2.96468 23.5591L3.71933 24.4841L4.58178 25.4634L5.22862 26.0619L5.92937 26.5516L6.92658 27.1229L7.92379 27.6942L9.43309 28.3471L10.619 28.7824L11.6431 29V24.8105L10.1877 24.2664L8.89405 23.5591L7.92379 22.7974L7.00743 21.9268L6.4684 21.2739L5.98327 20.621L5.55204 19.9137L5.17472 19.2064L4.7974 18.3358L4.52788 17.4653L4.36617 16.5403L4.25836 15.7242L4.20446 15.2345V14.3096V13.8199L4.25836 13.3846L4.36617 12.7861L4.52788 12.1332L4.68959 11.5891L5.17472 10.2833L5.71375 9.30393L6.36059 8.37898L6.84572 7.78048L7.33085 7.2908L7.81599 6.80112L8.46282 6.31143L9.00186 5.93057L9.7026 5.54971L10.1338 5.33207L10.7807 5.06003L11.6431 4.73357Z" fill="#FED53A"/>
<path d="M15.7398 29H14.6078V0.380863V0.272045V0H14.7695L16.4944 0.163227L18.1115 0.489681V24.5929L18.974 24.2664L20.1059 23.6679L21.8309 22.3077L22.855 21.1107L23.7714 19.6417L24.3643 18.3358L24.7416 16.8668L24.9033 15.3977H29L28.8383 17.1932L28.4071 18.8799L27.868 20.349L26.8978 22.3077L25.9275 23.6679L25.0651 24.7017L23.987 25.7355L22.6933 26.7148L21.1301 27.6398L19.4052 28.4559L18.1115 28.8368L17.1952 29H15.7398Z" fill="#00327C"/>
</svg>
