<svg width="183" height="29" viewBox="0 0 183 29" fill="none" xmlns="http://www.w3.org/2000/svg">
<path d="M51.632 24.288C50.336 24.288 49.128 24.08 48.008 23.664C46.904 23.232 45.944 22.624 45.128 21.84C44.312 21.056 43.672 20.136 43.208 19.08C42.76 18.024 42.536 16.864 42.536 15.6C42.536 14.336 42.76 13.176 43.208 12.12C43.672 11.064 44.312 10.144 45.128 9.36C45.96 8.576 46.928 7.976 48.032 7.56C49.136 7.128 50.344 6.912 51.656 6.912C53.112 6.912 54.424 7.168 55.592 7.68C56.776 8.176 57.768 8.912 58.568 9.888L56.072 12.192C55.496 11.536 54.856 11.048 54.152 10.728C53.448 10.392 52.68 10.224 51.848 10.224C51.064 10.224 50.344 10.352 49.688 10.608C49.032 10.864 48.464 11.232 47.984 11.712C47.504 12.192 47.128 12.76 46.856 13.416C46.6 14.072 46.472 14.8 46.472 15.6C46.472 16.4 46.6 17.128 46.856 17.784C47.128 18.44 47.504 19.008 47.984 19.488C48.464 19.968 49.032 20.336 49.688 20.592C50.344 20.848 51.064 20.976 51.848 20.976C52.68 20.976 53.448 20.816 54.152 20.496C54.856 20.16 55.496 19.656 56.072 18.984L58.568 21.288C57.768 22.264 56.776 23.008 55.592 23.52C54.424 24.032 53.104 24.288 51.632 24.288ZM66.6282 24.192C65.2522 24.192 64.0282 23.904 62.9562 23.328C61.9002 22.752 61.0602 21.968 60.4362 20.976C59.8282 19.968 59.5242 18.824 59.5242 17.544C59.5242 16.248 59.8282 15.104 60.4362 14.112C61.0602 13.104 61.9002 12.32 62.9562 11.76C64.0282 11.184 65.2522 10.896 66.6282 10.896C67.9882 10.896 69.2042 11.184 70.2762 11.76C71.3482 12.32 72.1882 13.096 72.7962 14.088C73.4042 15.08 73.7082 16.232 73.7082 17.544C73.7082 18.824 73.4042 19.968 72.7962 20.976C72.1882 21.968 71.3482 22.752 70.2762 23.328C69.2042 23.904 67.9882 24.192 66.6282 24.192ZM66.6282 21.12C67.2522 21.12 67.8122 20.976 68.3082 20.688C68.8042 20.4 69.1962 19.992 69.4842 19.464C69.7722 18.92 69.9162 18.28 69.9162 17.544C69.9162 16.792 69.7722 16.152 69.4842 15.624C69.1962 15.096 68.8042 14.688 68.3082 14.4C67.8122 14.112 67.2522 13.968 66.6282 13.968C66.0042 13.968 65.4442 14.112 64.9482 14.4C64.4522 14.688 64.0522 15.096 63.7482 15.624C63.4602 16.152 63.3162 16.792 63.3162 17.544C63.3162 18.28 63.4602 18.92 63.7482 19.464C64.0522 19.992 64.4522 20.4 64.9482 20.688C65.4442 20.976 66.0042 21.12 66.6282 21.12ZM81.6588 24.192C80.5868 24.192 79.6268 23.984 78.7788 23.568C77.9468 23.152 77.2988 22.52 76.8348 21.672C76.3708 20.808 76.1388 19.712 76.1388 18.384V11.088H79.8828V17.832C79.8828 18.904 80.1068 19.696 80.5548 20.208C81.0188 20.704 81.6668 20.952 82.4988 20.952C83.0748 20.952 83.5868 20.832 84.0348 20.592C84.4828 20.336 84.8348 19.952 85.0908 19.44C85.3468 18.912 85.4748 18.256 85.4748 17.472V11.088H89.2188V24H85.6668V20.448L86.3148 21.48C85.8828 22.376 85.2428 23.056 84.3948 23.52C83.5628 23.968 82.6508 24.192 81.6588 24.192ZM92.6874 24V11.088H96.2634V14.736L95.7594 13.68C96.1434 12.768 96.7594 12.08 97.6074 11.616C98.4554 11.136 99.4874 10.896 100.703 10.896V14.352C100.543 14.336 100.399 14.328 100.271 14.328C100.143 14.312 100.007 14.304 99.8634 14.304C98.8394 14.304 98.0074 14.6 97.3674 15.192C96.7434 15.768 96.4314 16.672 96.4314 17.904V24H92.6874ZM107.367 24.192C106.263 24.192 105.199 24.064 104.175 23.808C103.167 23.536 102.367 23.2 101.775 22.8L103.023 20.112C103.615 20.48 104.311 20.784 105.111 21.024C105.927 21.248 106.727 21.36 107.511 21.36C108.375 21.36 108.983 21.256 109.335 21.048C109.703 20.84 109.887 20.552 109.887 20.184C109.887 19.88 109.743 19.656 109.455 19.512C109.183 19.352 108.815 19.232 108.351 19.152C107.887 19.072 107.375 18.992 106.815 18.912C106.271 18.832 105.719 18.728 105.159 18.6C104.599 18.456 104.087 18.248 103.623 17.976C103.159 17.704 102.783 17.336 102.495 16.872C102.223 16.408 102.087 15.808 102.087 15.072C102.087 14.256 102.319 13.536 102.783 12.912C103.263 12.288 103.951 11.8 104.847 11.448C105.743 11.08 106.815 10.896 108.063 10.896C108.943 10.896 109.839 10.992 110.751 11.184C111.663 11.376 112.423 11.656 113.031 12.024L111.783 14.688C111.159 14.32 110.527 14.072 109.887 13.944C109.263 13.8 108.655 13.728 108.063 13.728C107.231 13.728 106.623 13.84 106.239 14.064C105.855 14.288 105.663 14.576 105.663 14.928C105.663 15.248 105.799 15.488 106.071 15.648C106.359 15.808 106.735 15.936 107.199 16.032C107.663 16.128 108.167 16.216 108.711 16.296C109.271 16.36 109.831 16.464 110.391 16.608C110.951 16.752 111.455 16.96 111.903 17.232C112.367 17.488 112.743 17.848 113.031 18.312C113.319 18.76 113.463 19.352 113.463 20.088C113.463 20.888 113.223 21.6 112.743 22.224C112.263 22.832 111.567 23.312 110.655 23.664C109.759 24.016 108.663 24.192 107.367 24.192ZM122.181 24.192C120.709 24.192 119.413 23.904 118.293 23.328C117.189 22.752 116.333 21.968 115.725 20.976C115.117 19.968 114.813 18.824 114.813 17.544C114.813 16.248 115.109 15.104 115.701 14.112C116.309 13.104 117.133 12.32 118.173 11.76C119.213 11.184 120.389 10.896 121.701 10.896C122.965 10.896 124.101 11.168 125.109 11.712C126.133 12.24 126.941 13.008 127.533 14.016C128.125 15.008 128.421 16.2 128.421 17.592C128.421 17.736 128.413 17.904 128.397 18.096C128.381 18.272 128.365 18.44 128.349 18.6H117.861V16.416H126.381L124.941 17.064C124.941 16.392 124.805 15.808 124.533 15.312C124.261 14.816 123.885 14.432 123.405 14.16C122.925 13.872 122.365 13.728 121.725 13.728C121.085 13.728 120.517 13.872 120.021 14.16C119.541 14.432 119.165 14.824 118.893 15.336C118.621 15.832 118.485 16.424 118.485 17.112V17.688C118.485 18.392 118.637 19.016 118.941 19.56C119.261 20.088 119.701 20.496 120.261 20.784C120.837 21.056 121.509 21.192 122.277 21.192C122.965 21.192 123.565 21.088 124.077 20.88C124.605 20.672 125.085 20.36 125.517 19.944L127.509 22.104C126.917 22.776 126.173 23.296 125.277 23.664C124.381 24.016 123.349 24.192 122.181 24.192Z" fill="#FED53A"/>
<path d="M131.178 24V7.2H135.066V20.832H143.49V24H131.178ZM153.412 24V21.48L153.172 20.928V16.416C153.172 15.616 152.924 14.992 152.428 14.544C151.948 14.096 151.204 13.872 150.196 13.872C149.508 13.872 148.828 13.984 148.156 14.208C147.5 14.416 146.94 14.704 146.476 15.072L145.132 12.456C145.836 11.96 146.684 11.576 147.676 11.304C148.668 11.032 149.676 10.896 150.7 10.896C152.668 10.896 154.196 11.36 155.284 12.288C156.372 13.216 156.916 14.664 156.916 16.632V24H153.412ZM149.476 24.192C148.468 24.192 147.604 24.024 146.884 23.688C146.164 23.336 145.612 22.864 145.228 22.272C144.844 21.68 144.652 21.016 144.652 20.28C144.652 19.512 144.836 18.84 145.204 18.264C145.588 17.688 146.188 17.24 147.004 16.92C147.82 16.584 148.884 16.416 150.196 16.416H153.628V18.6H150.604C149.724 18.6 149.116 18.744 148.78 19.032C148.46 19.32 148.3 19.68 148.3 20.112C148.3 20.592 148.484 20.976 148.852 21.264C149.236 21.536 149.756 21.672 150.412 21.672C151.036 21.672 151.596 21.528 152.092 21.24C152.588 20.936 152.948 20.496 153.172 19.92L153.748 21.648C153.476 22.48 152.98 23.112 152.26 23.544C151.54 23.976 150.612 24.192 149.476 24.192ZM167.937 24.192C166.801 24.192 165.825 23.952 165.009 23.472C164.193 22.992 163.569 22.264 163.137 21.288C162.705 20.296 162.489 19.048 162.489 17.544C162.489 16.024 162.713 14.776 163.161 13.8C163.625 12.824 164.265 12.096 165.081 11.616C165.897 11.136 166.849 10.896 167.937 10.896C169.153 10.896 170.241 11.168 171.201 11.712C172.177 12.256 172.945 13.024 173.505 14.016C174.081 15.008 174.369 16.184 174.369 17.544C174.369 18.888 174.081 20.056 173.505 21.048C172.945 22.04 172.177 22.816 171.201 23.376C170.241 23.92 169.153 24.192 167.937 24.192ZM160.305 24V6.192H164.049V13.704L163.809 17.52L163.881 21.36V24H160.305ZM167.289 21.12C167.913 21.12 168.465 20.976 168.945 20.688C169.441 20.4 169.833 19.992 170.121 19.464C170.425 18.92 170.577 18.28 170.577 17.544C170.577 16.792 170.425 16.152 170.121 15.624C169.833 15.096 169.441 14.688 168.945 14.4C168.465 14.112 167.913 13.968 167.289 13.968C166.665 13.968 166.105 14.112 165.609 14.4C165.113 14.688 164.721 15.096 164.433 15.624C164.145 16.152 164.001 16.792 164.001 17.544C164.001 18.28 164.145 18.92 164.433 19.464C164.721 19.992 165.113 20.4 165.609 20.688C166.105 20.976 166.665 21.12 167.289 21.12Z" fill="#EAEFF3"/>
<ellipse cx="179.033" cy="21" rx="3.03333" ry="3" fill="#EAEFF3"/>
<path d="M11.6431 4.73358V0.272045L10.6729 0.54409L9.7026 0.816135L8.24721 1.41463L6.68401 2.28518L5.65985 3.0469L4.95911 3.6454L4.25836 4.2439L3.50372 5.11445L2.80297 6.0394L2.04833 7.12758L1.6171 7.94371L0.862454 9.57598L0.431227 10.9906L0.215613 12.0788L0 13.8199V15.7242L0.269517 17.4653L0.700743 19.2064L1.29368 20.621L1.88662 21.9268L2.42565 22.7974L2.96468 23.5591L3.71933 24.4841L4.58178 25.4634L5.22862 26.0619L5.92937 26.5516L6.92658 27.1229L7.92379 27.6942L9.43309 28.3471L10.619 28.7824L11.6431 29V24.8105L10.1877 24.2664L8.89405 23.5591L7.92379 22.7974L7.00743 21.9268L6.4684 21.2739L5.98327 20.621L5.55204 19.9137L5.17472 19.2064L4.7974 18.3358L4.52788 17.4653L4.36617 16.5403L4.25836 15.7242L4.20446 15.2345V14.3096V13.8199L4.25836 13.3846L4.36617 12.7861L4.52788 12.1332L4.68959 11.5891L5.17472 10.2833L5.71375 9.30394L6.36059 8.37899L6.84572 7.78049L7.33085 7.29081L7.81599 6.80113L8.46282 6.31144L9.00186 5.93058L9.7026 5.54972L10.1338 5.33208L10.7807 5.06004L11.6431 4.73358Z" fill="#FED53A"/>
<path d="M15.7398 29H14.6078V0.380863V0.272045V0H14.7695L16.4944 0.163227L18.1115 0.489681V24.5929L18.974 24.2664L20.1059 23.6679L21.8309 22.3077L22.855 21.1107L23.7714 19.6417L24.3643 18.3358L24.7416 16.8668L24.9033 15.3977H29L28.8383 17.1932L28.4071 18.8799L27.868 20.349L26.8978 22.3077L25.9275 23.6679L25.0651 24.7017L23.987 25.7355L22.6933 26.7148L21.1301 27.6398L19.4052 28.4559L18.1115 28.8368L17.1952 29H15.7398Z" fill="#EAEFF3"/>
</svg>
